<?xml version="1.0" ?><!DOCTYPE svg  PUBLIC '-//W3C//DTD SVG 1.1//EN'  'http://www.w3.org/Graphics/SVG/1.1/DTD/svg11.dtd'><svg height="16px" id="Layer_1" style="enable-background:new 0 0 16 16;" version="1.1" viewBox="0 0 16 16" width="16px" xml:space="preserve" xmlns="http://www.w3.org/2000/svg" xmlns:xlink="http://www.w3.org/1999/xlink"><path d="M13,5h-1v4l-2-2L8,9V5H5C4.448,5,4,4.552,4,4s0.448-1,1-1h8c0.55,0,1-0.45,1-1s-0.45-1-1-1H5C3.343,1,2,2.343,2,4v8  c0,1.656,1.343,3,3,3h8c0.55,0,1-0.45,1-1V6C14,5.45,13.55,5,13,5z"/></svg>